<svg xmlns="http://www.w3.org/2000/svg" width="600" height="600" viewBox="0 0 600 600">
  <g fill="none" stroke="white" stroke-width="0.8" stroke-linecap="round">
    <!-- Each path starts and ends at the same y so the tile repeats seamlessly horizontally -->
    <path d="M0,22  C70,16  160,30  260,20  C360,10  460,28  560,18  C580,15  592,20  600,22"/>
    <path d="M0,44  C80,50  175,38  270,48  C365,58  455,42  545,52  C572,56  588,46  600,44"/>
    <path d="M0,68  C90,62  180,76  275,65  C370,54  460,70  550,60  C575,54  590,66  600,68"/>
    <path d="M0,96  C100,90  190,104 285,93  C375,82  465,98  555,88  C576,82  591,94  600,96"/>

    <path d="M0,138 C75,144 170,132 265,142 C355,152 448,136 538,146 C568,150 586,140 600,138"/>
    <path d="M0,162 C85,156 178,170 272,160 C366,150 455,166 545,155 C572,149 589,160 600,162"/>

    <path d="M0,205 C95,199 188,213 282,203 C376,193 466,209 556,198 C577,192 591,204 600,205"/>
    <path d="M0,228 C80,234 175,222 268,232 C362,242 452,226 542,236 C570,240 587,230 600,228"/>
    <path d="M0,252 C100,246 192,260 286,250 C380,240 468,256 558,245 C576,239 590,251 600,252"/>

    <path d="M0,300 C88,294 182,308 276,297 C370,286 460,303 550,292 C574,286 590,298 600,300"/>
    <path d="M0,324 C78,330 173,318 267,328 C361,338 450,322 540,332 C568,336 587,326 600,324"/>

    <path d="M0,368 C92,362 185,376 280,365 C374,354 463,371 553,360 C575,354 590,366 600,368"/>
    <path d="M0,392 C82,398 177,386 271,396 C365,406 454,390 544,400 C572,404 588,394 600,392"/>
    <path d="M0,415 C98,409 190,423 284,413 C378,402 466,418 556,407 C577,401 591,413 600,415"/>

    <path d="M0,458 C86,452 180,466 274,455 C368,444 458,461 548,450 C573,444 589,456 600,458"/>
    <path d="M0,482 C76,488 172,476 266,486 C360,496 450,480 540,490 C568,494 587,484 600,482"/>

    <path d="M0,526 C90,520 183,534 278,523 C372,512 462,529 552,518 C575,512 590,524 600,526"/>
    <path d="M0,550 C80,556 175,544 269,554 C363,564 452,548 542,558 C570,562 587,552 600,550"/>
    <path d="M0,574 C96,568 188,582 282,572 C376,561 465,578 555,567 C577,561 591,572 600,574"/>
  </g>
</svg>
